<svg xmlns="http://www.w3.org/2000/svg" xmlns:xlink="http://www.w3.org/1999/xlink" width="20" height="28" viewBox="0 0 20 28">
    <defs>
        <path id="b" d="M248 19a3 3 0 0 1 3 3v18a3 3 0 0 1-3 3h-14a3 3 0 0 1-3-3V22a3 3 0 0 1 3-3h14zm-6.794 6.214a.446.446 0 0 0-.613.21l-1.637 3.375-3.571.588a.449.449 0 0 0-.252.134.493.493 0 0 0 0 .675l2.56 2.674-.57 3.74c-.015.1 0 .202.044.292.115.235.39.328.613.208l3.012-1.612c.13-.07.285-.07.415 0l3.012 1.612a.438.438 0 0 0 .279.046.475.475 0 0 0 .378-.547l-.57-3.739 2.56-2.674a.486.486 0 0 0 .128-.263.475.475 0 0 0-.38-.546l-3.57-.588-1.638-3.376a.467.467 0 0 0-.2-.209z"/>
        <filter id="a" height="133.3%" y="-8.3%" filterUnits="objectBoundingBox">
            <feOffset dy="4" in="SourceAlpha" result="shadowOffsetOuter1"/>
            <feComposite in="shadowOffsetOuter1" in2="SourceAlpha" operator="out" result="shadowOffsetOuter1"/>
            <feColorMatrix in="shadowOffsetOuter1" values="0 0 0 0 0.0470588235 0 0 0 0 0.0549019608 0 0 0 0 0.109803922 0 0 0 1 0"/>
        </filter>
    </defs>
    <g fill="none" fill-rule="evenodd" transform="translate(-231 -19)">
        <use fill="#000" filter="url(#a)" xlink:href="#b"/>
        <path fill="#E5AF32" stroke="#000" stroke-linejoin="square" stroke-opacity=".07" d="M248 19.5h-14a2.5 2.5 0 0 0-2.5 2.5v18a2.5 2.5 0 0 0 2.5 2.5h14a2.5 2.5 0 0 0 2.5-2.5V22a2.5 2.5 0 0 0-2.5-2.5zm-4.62 8.848l3.316.546a.975.975 0 0 1 .793 1.113.986.986 0 0 1-.262.535l-2.39 2.496.533 3.496a.975.975 0 0 1-.79 1.115.938.938 0 0 1-.597-.098L241 35.954l-2.984 1.597a.946.946 0 0 1-1.298-.43.997.997 0 0 1-.09-.587l.534-3.496-2.39-2.496a.993.993 0 0 1-.001-1.365c.142-.15.329-.25.532-.283l3.316-.546 1.524-3.143a.946.946 0 0 1 1.713 0l1.524 3.143z"/>
    </g>
</svg>
