<?xml version="1.0" encoding="iso-8859-1"?>
<!-- Generator: Adobe Illustrator 16.0.0, SVG Export Plug-In . SVG Version: 6.00 Build 0)  -->
<!DOCTYPE svg PUBLIC "-//W3C//DTD SVG 1.1//EN" "http://www.w3.org/Graphics/SVG/1.1/DTD/svg11.dtd">
<svg version="1.1" id="Capa_1" xmlns="http://www.w3.org/2000/svg" xmlns:xlink="http://www.w3.org/1999/xlink" x="0px" y="0px"
	 width="124.529px" height="124.529px" viewBox="0 0 124.529 124.529" style="enable-background:new 0 0 124.529 124.529;"
	 xml:space="preserve">
<g>
	<g>
		<path d="M41.428,4.29h4.07v25.675h-4.07V4.29z"/>
		<path d="M43.458,49.419c1.541,0,2.901,0.53,4.074,1.565c1.178,1.041,1.769,2.518,1.769,4.454v13.816
			c0,1.809-0.59,3.245-1.769,4.28c-1.172,1.048-2.533,1.56-4.074,1.56c-1.553,0-2.957-0.512-4.089-1.56
			c-1.172-1.035-1.742-2.466-1.742-4.28V55.438c0-1.937,0.576-3.413,1.742-4.454C40.511,49.949,41.906,49.419,43.458,49.419z
			 M41.72,69.839c0,1.176,0.561,1.766,1.739,1.766s1.753-0.59,1.753-1.766V54.665c0-1.169-0.575-1.748-1.753-1.748
			s-1.739,0.584-1.739,1.748V69.839z"/>
		<path d="M43.458,94.567c1.541,0,2.901,0.523,4.074,1.559c1.178,1.023,1.769,2.515,1.769,4.457v13.811
			c0,1.803-0.59,3.239-1.769,4.274c-1.172,1.042-2.533,1.565-4.074,1.565c-1.553,0-2.957-0.523-4.089-1.565
			c-1.172-1.035-1.742-2.472-1.742-4.274v-13.811c0-1.942,0.576-3.434,1.742-4.457C40.511,95.091,41.906,94.567,43.458,94.567z
			 M41.72,114.978c0,1.182,0.561,1.767,1.739,1.767s1.753-0.585,1.753-1.767V99.816c0-1.176-0.575-1.767-1.753-1.767
			s-1.739,0.585-1.739,1.767V114.978z"/>
		<path d="M5.843,4.29c1.546,0,2.911,0.518,4.083,1.559c1.166,1.041,1.766,2.518,1.766,4.469v13.798
			c0,1.815-0.606,3.249-1.766,4.284c-1.172,1.041-2.536,1.565-4.083,1.565c-1.571,0-2.932-0.53-4.104-1.565
			C0.597,27.364,0,25.931,0,24.116V10.317C0,8.372,0.603,6.89,1.738,5.849C2.911,4.807,4.271,4.29,5.843,4.29z M4.089,24.703
			c0,1.179,0.588,1.763,1.754,1.763c1.178,0,1.775-0.584,1.775-1.763V9.538c0-1.178-0.597-1.766-1.775-1.766
			c-1.172,0-1.754,0.588-1.754,1.766V24.703z"/>
		<path d="M5.843,49.419c1.546,0,2.911,0.53,4.083,1.565c1.166,1.041,1.766,2.518,1.766,4.454v13.816
			c0,1.809-0.606,3.245-1.766,4.28c-1.172,1.048-2.536,1.56-4.083,1.56c-1.571,0-2.932-0.512-4.104-1.56
			C0.597,72.5,0,71.069,0,69.255V55.438c0-1.937,0.603-3.413,1.738-4.454C2.911,49.949,4.271,49.419,5.843,49.419z M4.089,69.839
			c0,1.176,0.588,1.766,1.754,1.766c1.178,0,1.775-0.59,1.775-1.766V54.665c0-1.169-0.597-1.748-1.775-1.748
			c-1.172,0-1.754,0.584-1.754,1.748V69.839z"/>
		<path d="M3.815,94.567h4.083v25.672H3.815V94.567z"/>
		<path d="M81.083,4.29c1.547,0,2.898,0.518,4.08,1.559c1.169,1.041,1.766,2.518,1.766,4.469v13.798
			c0,1.815-0.603,3.249-1.766,4.284c-1.182,1.041-2.533,1.565-4.08,1.565c-1.564,0-2.947-0.53-4.092-1.565
			c-1.169-1.035-1.741-2.469-1.741-4.284V10.317c0-1.945,0.584-3.428,1.741-4.469C78.136,4.807,79.519,4.29,81.083,4.29z
			 M79.312,24.703c0,1.179,0.603,1.763,1.766,1.763s1.772-0.584,1.772-1.763V9.538c0-1.178-0.609-1.766-1.772-1.766
			s-1.766,0.588-1.766,1.766V24.703z"/>
		<path d="M81.083,49.419c1.547,0,2.898,0.53,4.08,1.565c1.169,1.041,1.766,2.518,1.766,4.454v13.816
			c0,1.809-0.603,3.245-1.766,4.28c-1.182,1.048-2.533,1.56-4.08,1.56c-1.564,0-2.947-0.512-4.092-1.56
			c-1.169-1.035-1.741-2.466-1.741-4.28V55.438c0-1.937,0.584-3.413,1.741-4.454C78.136,49.949,79.519,49.419,81.083,49.419z
			 M79.312,69.839c0,1.176,0.603,1.766,1.766,1.766s1.772-0.59,1.772-1.766V54.665c0-1.169-0.609-1.748-1.772-1.748
			s-1.766,0.584-1.766,1.748V69.839z"/>
		<path d="M79.025,94.567h4.092v25.672h-4.092V94.567z"/>
		<path d="M118.689,4.29c1.547,0,2.911,0.518,4.08,1.559c1.163,1.041,1.76,2.518,1.76,4.469v13.798c0,1.815-0.603,3.249-1.76,4.284
			c-1.169,1.041-2.533,1.565-4.08,1.565c-1.57,0-2.935-0.53-4.104-1.565c-1.145-1.035-1.748-2.469-1.748-4.284V10.317
			c0-1.945,0.604-3.428,1.748-4.469C115.755,4.807,117.119,4.29,118.689,4.29z M116.93,24.703c0,1.179,0.579,1.763,1.76,1.763
			c1.17,0,1.767-0.584,1.767-1.763V9.538c0-1.178-0.604-1.766-1.767-1.766c-1.181,0-1.76,0.588-1.76,1.766V24.703z"/>
		<path d="M118.689,49.419c1.547,0,2.911,0.53,4.08,1.565c1.163,1.041,1.76,2.518,1.76,4.454v13.816c0,1.809-0.603,3.245-1.76,4.28
			c-1.169,1.048-2.533,1.56-4.08,1.56c-1.57,0-2.935-0.512-4.104-1.56c-1.145-1.035-1.748-2.466-1.748-4.28V55.438
			c0-1.937,0.604-3.413,1.748-4.454C115.755,49.949,117.119,49.419,118.689,49.419z M116.93,69.839c0,1.176,0.579,1.766,1.76,1.766
			c1.17,0,1.767-0.59,1.767-1.766V54.665c0-1.169-0.604-1.748-1.767-1.748c-1.181,0-1.76,0.584-1.76,1.748V69.839z"/>
		<path d="M116.662,94.567h4.05v25.672h-4.05V94.567z"/>
	</g>
</g>
<g>
</g>
<g>
</g>
<g>
</g>
<g>
</g>
<g>
</g>
<g>
</g>
<g>
</g>
<g>
</g>
<g>
</g>
<g>
</g>
<g>
</g>
<g>
</g>
<g>
</g>
<g>
</g>
<g>
</g>
</svg>
