<?xml version="1.0" standalone="no"?>
<svg version="1.0" xmlns="http://www.w3.org/2000/svg"
 width="330px" height="67px" viewBox="0 69 330 1"
 preserveAspectRatio="xMidYMid meet">

<g transform="translate(0,150) scale(0.1,-0.1)"
fill="#000000" stroke="none">
<path d="M373 1021 l-132 -76 0 -160 0 -160 132 -75 c72 -41 137 -76 144 -78
7 -2 73 32 147 75 l136 78 0 160 0 160 -134 78 c-74 42 -141 76 -148 76 -7 -1
-72 -36 -145 -78z m191 40 l28 -19 -23 -15 c-13 -8 -68 -40 -121 -70 l-98 -56
0 44 0 44 83 45 c45 25 87 46 92 46 6 0 23 -9 39 -19z m87 -50 l31 -19 -69
-40 c-37 -21 -112 -65 -166 -95 l-98 -57 3 42 3 42 125 73 c69 39 128 72 132
72 4 1 22 -8 39 -18z m84 -48 c19 -9 35 -19 35 -22 0 -3 -95 -61 -211 -128
l-210 -122 3 47 3 46 170 98 c94 54 171 98 172 98 1 0 18 -8 38 -17z m-405
-178 c0 -102 -3 -185 -6 -185 -3 0 -19 8 -35 17 l-29 17 0 151 0 150 28 17
c15 10 30 18 35 18 4 0 7 -83 7 -185z m450 -10 l0 -144 -30 -16 c-16 -8 -31
-15 -35 -15 -3 0 -5 63 -5 139 l0 139 33 21 c17 11 33 21 35 21 1 0 2 -65 2
-145z m-90 -49 l0 -144 -35 -21 -35 -20 0 143 0 144 33 20 c17 11 33 21 35 21
1 1 2 -64 2 -143z m-94 -192 c-3 -7 -19 -20 -35 -29 l-31 -16 0 145 0 144 33
19 32 19 3 -135 c1 -74 0 -141 -2 -147z m-86 91 l0 -134 -35 20 -35 21 0 97
c0 94 1 97 28 113 15 10 30 18 35 18 4 0 7 -61 7 -135z m-90 0 l0 -84 -35 20
c-32 19 -35 25 -35 68 0 43 3 49 33 64 17 8 33 16 35 16 1 1 2 -37 2 -84z"/>
<path d="M950 871 c0 -5 10 -11 23 -13 20 -3 22 -9 27 -93 l6 -90 4 90 c5 84
6 90 28 93 44 7 21 22 -33 22 -30 0 -55 -4 -55 -9z"/>
<path d="M1250 781 c0 -113 -1 -111 72 -91 46 13 68 43 68 92 0 54 -33 89 -93
95 l-47 6 0 -102z m102 52 c24 -22 24 -77 -2 -103 -11 -11 -33 -20 -50 -20
l-30 0 0 70 0 70 32 0 c17 0 40 -7 50 -17z"/>
<path d="M1450 780 c0 -60 4 -100 10 -100 6 0 10 40 10 100 0 60 -4 100 -10
100 -6 0 -10 -40 -10 -100z"/>
<path d="M1530 800 c0 -67 3 -83 20 -100 27 -27 66 -25 95 5 22 21 25 33 25
100 0 43 -4 75 -10 75 -6 0 -10 -29 -10 -66 0 -77 -12 -104 -45 -104 -51 0
-55 7 -55 91 0 46 -4 79 -10 79 -6 0 -10 -33 -10 -80z"/>
<path d="M1737 862 c-34 -38 -13 -82 46 -96 22 -5 28 -12 25 -29 -4 -26 -41
-35 -64 -16 -8 6 -18 9 -22 5 -10 -10 36 -46 58 -46 27 0 50 27 50 59 0 32
-13 45 -53 55 -35 8 -46 34 -22 52 24 18 30 18 50 -2 20 -20 33 -10 19 14 -16
25 -66 27 -87 4z"/>
<path d="M1896 864 c-9 -8 -16 -29 -16 -45 0 -23 6 -32 28 -40 49 -20 57 -26
57 -45 0 -23 -39 -31 -61 -13 -18 15 -27 8 -18 -15 8 -20 52 -32 72 -19 47 29
39 94 -12 103 -40 7 -56 34 -34 56 16 16 19 16 42 1 29 -19 36 -21 36 -8 0 18
-31 41 -55 41 -13 0 -31 -7 -39 -16z"/>
<path d="M2210 780 c0 -60 4 -100 10 -100 6 0 10 20 10 45 0 44 0 45 33 45 60
0 90 63 45 94 -12 9 -39 16 -60 16 l-38 0 0 -100z m97 54 c8 -21 -21 -44 -54
-44 -19 0 -23 5 -23 30 0 28 3 30 35 30 24 0 38 -5 42 -16z"/>
<path d="M2380 780 c0 -60 4 -100 10 -100 6 0 10 20 10 45 l0 45 40 0 c22 0
40 5 40 10 0 6 -18 10 -40 10 -38 0 -40 2 -40 30 0 29 1 30 50 30 38 0 50 4
50 15 0 12 -13 15 -60 15 l-60 0 0 -100z"/>
<path d="M2550 780 c0 -60 4 -100 10 -100 6 0 10 40 10 100 0 60 -4 100 -10
100 -6 0 -10 -40 -10 -100z"/>
<path d="M2630 780 c0 -60 4 -100 10 -100 6 0 10 20 10 45 0 39 3 45 20 45 15
0 26 -13 40 -45 11 -25 24 -45 30 -45 14 0 13 5 -9 49 -19 37 -19 38 0 54 45
39 8 97 -63 97 l-38 0 0 -100z m97 54 c8 -21 -24 -46 -52 -42 -13 2 -21 12
-23 31 -3 25 -1 27 33 27 24 0 38 -5 42 -16z"/>
<path d="M2839 867 c-25 -19 -39 -52 -39 -92 0 -48 44 -95 90 -95 46 0 90 47
90 95 0 66 -33 104 -90 104 -19 0 -42 -5 -51 -12z m95 -28 c30 -24 35 -72 10
-107 -11 -16 -25 -22 -54 -22 -46 0 -70 26 -70 76 0 35 37 74 70 74 10 0 29
-9 44 -21z"/>
<path d="M2059 775 c-27 -70 -33 -95 -23 -95 8 0 14 7 14 15 0 11 12 15 44 15
30 0 46 -5 50 -15 3 -8 10 -15 15 -15 9 0 -11 63 -51 158 l-13 33 -36 -96z
m58 -10 c11 -34 11 -35 -18 -35 -32 0 -34 6 -19 44 13 35 25 33 37 -9z"/>
<path d="M1137 854 c-17 -28 -67 -167 -62 -173 4 -3 11 2 16 12 7 11 22 17 49
17 27 0 42 -6 49 -17 5 -10 13 -15 16 -11 4 4 -8 46 -27 94 -19 48 -38 83 -41
78z m21 -79 c18 -38 15 -45 -18 -45 -16 0 -30 2 -30 4 0 13 23 66 29 66 4 0
13 -11 19 -25z"/>
</g>
</svg>
