<svg height="64" width="64" xmlns="http://www.w3.org/2000/svg"><g clip-rule="evenodd" fill-rule="evenodd" image-rendering="optimizeQuality" shape-rendering="geometricPrecision" text-rendering="geometricPrecision" stroke="#000"><path class="fil0 str0" fill="none" stroke-width="20.835" stroke-linecap="round" stroke-linejoin="round" d="M7095 7523l142 58 2 386h-636l-3-386 144-58" transform="matrix(.0922 0 0 .09295 -605.96 -682.935)"/><path class="fil0 str0" fill="none" stroke-width="20.835" stroke-linecap="round" stroke-linejoin="round" d="M6603 7967l318-232 318 232" transform="matrix(.0922 0 0 .09295 -605.96 -682.935)"/><path class="fil0 str1" fill="none" stroke-width="20.835" d="M6603 7581l257 198M7239 7581l-259 197" transform="matrix(.0922 0 0 .09295 -605.96 -682.935)"/><path class="fil0 str0" fill="none" stroke-width="20.835" stroke-linecap="round" stroke-linejoin="round" d="M6746 7689v-273h348v276M6853 7474h193M6792 7541h254M6792 7608h254M6792 7675h254" transform="matrix(.0922 0 0 .09295 -605.96 -682.935)"/></g></svg>