<svg xmlns="http://www.w3.org/2000/svg" width="40" height="40"><path d="M9.8 18.2v3.6l2.6-1.8zm9.1-2.6v-4.9l-8.3 5.5 3.7 2.5zm10.5.6l-8.3-5.5v4.9l4.6 3.1zm-18.8 7.6l8.3 5.5v-4.9l-4.6-3.1zm10.5.6v4.9l8.3-5.5-3.7-2.5zM20 17.5L16.2 20l3.8 2.5 3.8-2.5z"/><path d="M20 0C9 0 0 9 0 20s9 20 20 20 20-9 20-20S31 0 20 0zm12.4 23.8v.7l-.1.1-.1.1-11.3 7.5c-.2.1-.4.2-.6.2-.2 0-.4-.1-.6-.2L8.1 24.7l-.1-.1-.1-.1V15.6l.1-.1.1-.1 11.3-7.5c.4-.2.8-.2 1.2 0l11.3 7.5.1.1.1.1v8.2z"/><path d="M30.2 21.8v-3.6L27.6 20z"/></svg>