<?xml version="1.0" standalone="no"?>
<svg version="1.0" xmlns="http://www.w3.org/2000/svg"
 width="330px" height="67px" viewBox="0 69 330 1"
 preserveAspectRatio="xMidYMid meet">

<g transform="translate(0,150) scale(0.1,-0.1)"
fill="#000" stroke="none">
<path d="M373 1021 l-132 -76 0 -160 0 -160 132 -75 c72 -41 137 -76 144 -78
7 -2 73 32 147 75 l136 78 0 160 0 160 -134 78 c-74 42 -141 76 -148 76 -7 -1
-72 -36 -145 -78z m191 40 l28 -19 -23 -15 c-13 -8 -68 -40 -121 -70 l-98 -56
0 44 0 44 83 45 c45 25 87 46 92 46 6 0 23 -9 39 -19z m87 -50 l31 -19 -69
-40 c-37 -21 -112 -65 -166 -95 l-98 -57 3 42 3 42 125 73 c69 39 128 72 132
72 4 1 22 -8 39 -18z m84 -48 c19 -9 35 -19 35 -22 0 -3 -95 -61 -211 -128
l-210 -122 3 47 3 46 170 98 c94 54 171 98 172 98 1 0 18 -8 38 -17z m-405
-178 c0 -102 -3 -185 -6 -185 -3 0 -19 8 -35 17 l-29 17 0 151 0 150 28 17
c15 10 30 18 35 18 4 0 7 -83 7 -185z m450 -10 l0 -144 -30 -16 c-16 -8 -31
-15 -35 -15 -3 0 -5 63 -5 139 l0 139 33 21 c17 11 33 21 35 21 1 0 2 -65 2
-145z m-90 -49 l0 -144 -35 -21 -35 -20 0 143 0 144 33 20 c17 11 33 21 35 21
1 1 2 -64 2 -143z m-94 -192 c-3 -7 -19 -20 -35 -29 l-31 -16 0 145 0 144 33
19 32 19 3 -135 c1 -74 0 -141 -2 -147z m-86 91 l0 -134 -35 20 -35 21 0 97
c0 94 1 97 28 113 15 10 30 18 35 18 4 0 7 -61 7 -135z m-90 0 l0 -84 -35 20
c-32 19 -35 25 -35 68 0 43 3 49 33 64 17 8 33 16 35 16 1 1 2 -37 2 -84z"/>

</g>
</svg>