<svg version="1.0" xmlns="http://www.w3.org/2000/svg" width="330" height="67" viewBox="0 69 330 1"><path d="M37.3 47.9l-13.2 7.6v32L37.3 95c7.2 4.1 13.7 7.6 14.4 7.8.7.2 7.3-3.2 14.7-7.5L80 87.5v-32l-13.4-7.8c-7.4-4.2-14.1-7.6-14.8-7.6-.7.1-7.2 3.6-14.5 7.8zm19.1-4l2.8 1.9-2.3 1.5c-1.3.8-6.8 4-12.1 7L35 59.9v-8.8l8.3-4.5c4.5-2.5 8.7-4.6 9.2-4.6.6 0 2.3.9 3.9 1.9zm8.7 5l3.1 1.9-6.9 4c-3.7 2.1-11.2 6.5-16.6 9.5L34.9 70l.3-4.2.3-4.2L48 54.3c6.9-3.9 12.8-7.2 13.2-7.2.4-.1 2.2.8 3.9 1.8zm8.4 4.8c1.9.9 3.5 1.9 3.5 2.2 0 .3-9.5 6.1-21.1 12.8l-21 12.2.3-4.7.3-4.6 17-9.8c9.4-5.4 17.1-9.8 17.2-9.8.1 0 1.8.8 3.8 1.7zM33 71.5c0 10.2-.3 18.5-.6 18.5s-1.9-.8-3.5-1.7L26 86.6V56.5l2.8-1.7c1.5-1 3-1.8 3.5-1.8.4 0 .7 8.3.7 18.5zm45 1v14.4l-3 1.6c-1.6.8-3.1 1.5-3.5 1.5-.3 0-.5-6.3-.5-13.9V62.2l3.3-2.1C76 59 77.6 58 77.8 58c.1 0 .2 6.5.2 14.5zm-9 4.9v14.4l-3.5 2.1-3.5 2V67.2l3.3-2c1.7-1.1 3.3-2.1 3.5-2.1.1-.1.2 6.4.2 14.3zm-9.4 19.2c-.3.7-1.9 2-3.5 2.9l-3.1 1.6V72.2l3.3-1.9 3.2-1.9.3 13.5c.1 7.4 0 14.1-.2 14.7zM51 87.5v13.4l-3.5-2-3.5-2.1v-9.7c0-9.4.1-9.7 2.8-11.3 1.5-1 3-1.8 3.5-1.8.4 0 .7 6.1.7 13.5zm-9 0v8.4l-3.5-2C35.3 92 35 91.4 35 87.1s.3-4.9 3.3-6.4c1.7-.8 3.3-1.6 3.5-1.6.1-.1.2 3.7.2 8.4z"/></svg>