<svg xmlns="http://www.w3.org/2000/svg" width="124.529" height="124.529"><path d="M41.428 4.29h4.07v25.675h-4.07V4.29zm2.03 45.129c1.541 0 2.901.53 4.074 1.565 1.178 1.041 1.769 2.518 1.769 4.454v13.816c0 1.809-.59 3.245-1.769 4.28-1.172 1.048-2.533 1.56-4.074 1.56-1.553 0-2.957-.512-4.089-1.56-1.172-1.035-1.742-2.466-1.742-4.28V55.438c0-1.937.576-3.413 1.742-4.454 1.142-1.035 2.537-1.565 4.089-1.565zm-1.738 20.42c0 1.176.561 1.766 1.739 1.766s1.753-.59 1.753-1.766V54.665c0-1.169-.575-1.748-1.753-1.748s-1.739.584-1.739 1.748v15.174zm1.738 24.728c1.541 0 2.901.523 4.074 1.559 1.178 1.023 1.769 2.515 1.769 4.457v13.811c0 1.803-.59 3.239-1.769 4.274-1.172 1.042-2.533 1.565-4.074 1.565-1.553 0-2.957-.523-4.089-1.565-1.172-1.035-1.742-2.472-1.742-4.274v-13.811c0-1.942.576-3.434 1.742-4.457 1.142-1.035 2.537-1.559 4.089-1.559zm-1.738 20.411c0 1.182.561 1.767 1.739 1.767s1.753-.585 1.753-1.767V99.816c0-1.176-.575-1.767-1.753-1.767s-1.739.585-1.739 1.767v15.162zM5.843 4.29c1.546 0 2.911.518 4.083 1.559 1.166 1.041 1.766 2.518 1.766 4.469v13.798c0 1.815-.606 3.249-1.766 4.284-1.172 1.041-2.536 1.565-4.083 1.565-1.571 0-2.932-.53-4.104-1.565C.597 27.364 0 25.931 0 24.116V10.317C0 8.372.603 6.89 1.738 5.849 2.911 4.807 4.271 4.29 5.843 4.29zM4.089 24.703c0 1.179.588 1.763 1.754 1.763 1.178 0 1.775-.584 1.775-1.763V9.538c0-1.178-.597-1.766-1.775-1.766-1.172 0-1.754.588-1.754 1.766v15.165zm1.754 24.716c1.546 0 2.911.53 4.083 1.565 1.166 1.041 1.766 2.518 1.766 4.454v13.816c0 1.809-.606 3.245-1.766 4.28-1.172 1.048-2.536 1.56-4.083 1.56-1.571 0-2.932-.512-4.104-1.56C.597 72.5 0 71.069 0 69.255V55.438c0-1.937.603-3.413 1.738-4.454 1.173-1.035 2.533-1.565 4.105-1.565zm-1.754 20.42c0 1.176.588 1.766 1.754 1.766 1.178 0 1.775-.59 1.775-1.766V54.665c0-1.169-.597-1.748-1.775-1.748-1.172 0-1.754.584-1.754 1.748v15.174zm-.274 24.728h4.083v25.672H3.815V94.567zM81.083 4.29c1.547 0 2.898.518 4.08 1.559 1.169 1.041 1.766 2.518 1.766 4.469v13.798c0 1.815-.603 3.249-1.766 4.284-1.182 1.041-2.533 1.565-4.08 1.565-1.564 0-2.947-.53-4.092-1.565-1.169-1.035-1.741-2.469-1.741-4.284V10.317c0-1.945.584-3.428 1.741-4.469 1.145-1.041 2.528-1.558 4.092-1.558zm-1.771 20.413c0 1.179.603 1.763 1.766 1.763s1.772-.584 1.772-1.763V9.538c0-1.178-.609-1.766-1.772-1.766s-1.766.588-1.766 1.766v15.165zm1.771 24.716c1.547 0 2.898.53 4.08 1.565 1.169 1.041 1.766 2.518 1.766 4.454v13.816c0 1.809-.603 3.245-1.766 4.28-1.182 1.048-2.533 1.56-4.08 1.56-1.564 0-2.947-.512-4.092-1.56-1.169-1.035-1.741-2.466-1.741-4.28V55.438c0-1.937.584-3.413 1.741-4.454 1.145-1.035 2.528-1.565 4.092-1.565zm-1.771 20.42c0 1.176.603 1.766 1.766 1.766s1.772-.59 1.772-1.766V54.665c0-1.169-.609-1.748-1.772-1.748s-1.766.584-1.766 1.748v15.174zm-.287 24.728h4.092v25.672h-4.092V94.567zM118.689 4.29c1.547 0 2.911.518 4.08 1.559 1.163 1.041 1.76 2.518 1.76 4.469v13.798c0 1.815-.603 3.249-1.76 4.284-1.169 1.041-2.533 1.565-4.08 1.565-1.57 0-2.935-.53-4.104-1.565-1.145-1.035-1.748-2.469-1.748-4.284V10.317c0-1.945.604-3.428 1.748-4.469 1.17-1.041 2.534-1.558 4.104-1.558zm-1.759 20.413c0 1.179.579 1.763 1.76 1.763 1.17 0 1.767-.584 1.767-1.763V9.538c0-1.178-.604-1.766-1.767-1.766-1.181 0-1.76.588-1.76 1.766v15.165zm1.759 24.716c1.547 0 2.911.53 4.08 1.565 1.163 1.041 1.76 2.518 1.76 4.454v13.816c0 1.809-.603 3.245-1.76 4.28-1.169 1.048-2.533 1.56-4.08 1.56-1.57 0-2.935-.512-4.104-1.56-1.145-1.035-1.748-2.466-1.748-4.28V55.438c0-1.937.604-3.413 1.748-4.454 1.17-1.035 2.534-1.565 4.104-1.565zm-1.759 20.42c0 1.176.579 1.766 1.76 1.766 1.17 0 1.767-.59 1.767-1.766V54.665c0-1.169-.604-1.748-1.767-1.748-1.181 0-1.76.584-1.76 1.748v15.174zm-.268 24.728h4.05v25.672h-4.05V94.567z"/></svg>