<svg xmlns="http://www.w3.org/2000/svg" viewBox="0 0 441 441"><path d="M435.5 155.408a5.5 5.5 0 0 0 0-11h-84.329v-50.7H435.5a5.5 5.5 0 0 0 0-11h-84.329V12.76a5.5 5.5 0 0 0-11 0v69.947H100.829V12.76a5.5 5.5 0 1 0-11 0v69.947H5.5a5.5 5.5 0 1 0 0 11h84.329v50.7H5.5a5.5 5.5 0 1 0 0 11h84.329v169.037H5.5a5.5 5.5 0 1 0 0 11h84.329v92.795a5.5 5.5 0 1 0 11 0v-92.795h239.342v92.795a5.5 5.5 0 0 0 11 0v-92.795H435.5a5.5 5.5 0 0 0 0-11h-84.329V155.408H435.5zm-95.329-61.701v50.7H169.725l18.727-50.7h151.719zm-239.342 0h75.897l-18.727 50.7H100.83v-50.7zm53.106 61.701l-53.106 143.773V155.408h53.106zm11.93 169.036l13.05-37.867h81.614l13.047 37.867H165.865zm174.306 0h-54.96l-15.56-45.159a5.501 5.501 0 0 0-5.2-3.708h-89.458a5.5 5.5 0 0 0-5.2 3.708l-15.563 45.159h-51.007l62.438-169.037h46.442l-27.327 79.562a5.501 5.501 0 0 0 5.202 7.286h59.486a5.503 5.503 0 0 0 5.203-7.286l-27.323-79.562h112.827v169.037zM219.723 167.086l22.037 64.17h-44.077l22.04-64.17z"/></svg>